<svg xmlns="http://www.w3.org/2000/svg" width="920" height="615" viewBox="0 0 920 615">
<rect width="920" height="615" fill="white"/>
<g font-family="Arial, sans-serif" fill="black">
<path d="M280 80 L330 80" stroke="black" fill="none" stroke-width="1.7"/>
<text x="285" y="71" font-size="16">1</text><text x="325" y="100" text-anchor="end" font-size="16">0..N</text>
<path d="M590 80 L640 80" stroke="black" fill="none" stroke-width="1.7"/>
<text x="595" y="71" font-size="16">0..N</text><text x="635" y="100" text-anchor="end" font-size="16">1</text>
<path d="M460 150 L460 230" stroke="black" fill="none" stroke-width="1.7"/>
<text x="468" y="168" font-size="16">1</text><text x="468" y="221" font-size="16">0..N</text>
<path d="M280 290 L330 290" stroke="black" fill="none" stroke-width="1.7"/>
<text x="285" y="281" font-size="16">0..N</text><text x="325" y="310" text-anchor="end" font-size="16">1</text>
<path d="M590 290 L640 290" stroke="black" fill="none" stroke-width="1.7"/>
<text x="595" y="281" font-size="16">1</text><text x="635" y="310" text-anchor="end" font-size="16">0..N</text>
<path d="M460 360 L460 440" stroke="black" fill="none" stroke-width="1.7"/>
<text x="468" y="378" font-size="16">1</text><text x="468" y="431" font-size="16">0..N</text>
<path d="M280 500 L330 500" stroke="black" fill="none" stroke-width="1.7"/>
<text x="285" y="491" font-size="16">1</text><text x="325" y="520" text-anchor="end" font-size="16">0..N</text>
<path d="M590 500 L640 500" stroke="black" fill="none" stroke-width="1.7"/>
<text x="595" y="491" font-size="16">0..N</text><text x="635" y="520" text-anchor="end" font-size="16">1</text>
<path d="M770 360 L770 440" stroke="black" fill="none" stroke-width="1.7"/>
<text x="778" y="378" font-size="16">0..N</text><text x="778" y="431" font-size="16">1</text>
<rect x="20" y="20" width="260" height="130" rx="3" fill="white" stroke="black" stroke-width="1.5"/>
<text x="150" y="45" text-anchor="middle" font-size="19" font-weight="bold">Заказчик</text>
<path d="M20 58 H280" stroke="black"/>
<text x="30" y="75" font-size="16">PK customer_id</text>
<text x="30" y="95" font-size="16">full_name, phone, email</text>
<rect x="330" y="20" width="260" height="130" rx="3" fill="white" stroke="black" stroke-width="1.5"/>
<text x="460" y="45" text-anchor="middle" font-size="19" font-weight="bold">Инструмент</text>
<path d="M330 58 H590" stroke="black"/>
<text x="340" y="75" font-size="16">PK instrument_id</text>
<text x="340" y="95" font-size="16">UQ inventory_no</text>
<text x="340" y="115" font-size="16">FK customer_id, type_id</text>
<text x="340" y="135" font-size="16">name, maker, serial_no</text>
<rect x="640" y="20" width="260" height="130" rx="3" fill="white" stroke="black" stroke-width="1.5"/>
<text x="770" y="45" text-anchor="middle" font-size="19" font-weight="bold">Тип инструмента</text>
<path d="M640 58 H900" stroke="black"/>
<text x="650" y="75" font-size="16">PK type_id; UQ name</text>
<text x="650" y="95" font-size="16">description</text>
<rect x="20" y="230" width="260" height="130" rx="3" fill="white" stroke="black" stroke-width="1.5"/>
<text x="150" y="255" text-anchor="middle" font-size="19" font-weight="bold">Оплата</text>
<path d="M20 268 H280" stroke="black"/>
<text x="30" y="285" font-size="16">PK payment_id; FK order_id</text>
<text x="30" y="305" font-size="16">paid_on, amount_kopecks</text>
<text x="30" y="325" font-size="16">method; UQ receipt_no</text>
<rect x="330" y="230" width="260" height="130" rx="3" fill="white" stroke="black" stroke-width="1.5"/>
<text x="460" y="255" text-anchor="middle" font-size="19" font-weight="bold">Заказ</text>
<path d="M330 268 H590" stroke="black"/>
<text x="340" y="285" font-size="16">PK order_id; FK instrument_id</text>
<text x="340" y="305" font-size="16">accepted_on, due_on</text>
<text x="340" y="325" font-size="16">status, complaint</text>
<rect x="640" y="230" width="260" height="130" rx="3" fill="white" stroke="black" stroke-width="1.5"/>
<text x="770" y="255" text-anchor="middle" font-size="19" font-weight="bold">Осмотр</text>
<path d="M640 268 H900" stroke="black"/>
<text x="650" y="285" font-size="16">PK inspection_id</text>
<text x="650" y="305" font-size="16">FK order_id, employee_id</text>
<text x="650" y="325" font-size="16">inspected_on, conclusion</text>
<rect x="20" y="440" width="260" height="130" rx="3" fill="white" stroke="black" stroke-width="1.5"/>
<text x="150" y="465" text-anchor="middle" font-size="19" font-weight="bold">Вид работы</text>
<path d="M20 478 H280" stroke="black"/>
<text x="30" y="495" font-size="16">PK service_id; UQ name</text>
<text x="30" y="515" font-size="16">description, base_price_kopecks</text>
<rect x="330" y="440" width="260" height="130" rx="3" fill="white" stroke="black" stroke-width="1.5"/>
<text x="460" y="465" text-anchor="middle" font-size="19" font-weight="bold">Работа по заказу</text>
<path d="M330 478 H590" stroke="black"/>
<text x="340" y="495" font-size="16">PK (order_id, line_no)</text>
<text x="340" y="515" font-size="16">FK order_id</text>
<text x="340" y="535" font-size="16">FK service_id, employee_id</text>
<text x="340" y="555" font-size="16">agreed_price_kopecks, status</text>
<rect x="640" y="440" width="260" height="130" rx="3" fill="white" stroke="black" stroke-width="1.5"/>
<text x="770" y="465" text-anchor="middle" font-size="19" font-weight="bold">Реставратор</text>
<path d="M640 478 H900" stroke="black"/>
<text x="650" y="495" font-size="16">PK employee_id</text>
<text x="650" y="515" font-size="16">UQ work_email</text>
<text x="650" y="535" font-size="16">full_name, specialization</text>
<text x="460" y="603" text-anchor="middle" font-size="14">PK — первичный ключ; FK — внешний ключ; UQ — альтернативный ключ</text></g></svg>